<?xml version="1.0" standalone="no"?>
<!DOCTYPE svg PUBLIC "-//W3C//DTD SVG 20010904//EN"
 "http://www.w3.org/TR/2001/REC-SVG-20010904/DTD/svg10.dtd">
<svg version="1.0" xmlns="http://www.w3.org/2000/svg"
 width="448.000000pt" height="512.000000pt" viewBox="0 0 448.000000 512.000000"
 preserveAspectRatio="xMidYMid meet">

<g transform="translate(0.000000,512.000000) scale(0.100000,-0.100000)"
fill="#000000" stroke="none">
<path d="M0 2560 l0 -2560 983 1 c540 1 971 3 957 6 -166 25 -239 39 -320 62
-573 165 -1016 627 -1136 1183 -25 116 -25 374 0 473 51 200 153 329 329 415
56 28 109 50 117 50 39 1 42 15 17 82 -45 120 -61 212 -49 287 27 162 167 348
317 422 87 42 183 51 282 24 35 -10 66 -16 68 -14 2 3 -25 85 -61 184 -35 99
-107 308 -158 465 -249 753 -287 1025 -174 1250 54 109 152 187 273 216 41 10
-88 12 -697 13 l-748 1 0 -2560z"/>
<path d="M1658 5094 c219 -109 491 -624 781 -1478 39 -116 73 -212 75 -214 2
-2 11 16 20 40 8 24 50 138 92 253 165 453 320 794 458 1006 85 129 208 255
288 293 52 25 66 28 145 24 74 -3 99 -8 156 -35 158 -75 247 -235 247 -446 0
-198 -113 -608 -366 -1331 -47 -131 -83 -240 -82 -241 2 -1 31 -10 65 -20 219
-64 377 -237 438 -480 63 -249 57 -646 -15 -976 -51 -236 -184 -541 -317 -729
-99 -139 -312 -349 -447 -439 -250 -166 -514 -264 -826 -305 -94 -12 11 -14
1003 -15 l1107 -1 0 2560 0 2560 -1437 0 -1437 0 52 -26z"/>
<path d="M1466 4760 c-35 -42 -49 -102 -41 -169 27 -227 149 -628 385 -1266
66 -178 65 -176 93 -166 44 17 124 21 222 12 55 -5 101 -8 103 -6 4 4 -366
1071 -415 1195 -83 209 -177 374 -237 413 -40 27 -80 22 -110 -13z"/>
<path d="M3395 4626 c-43 -43 -68 -83 -123 -197 -38 -79 -88 -196 -110 -259
-222 -627 -373 -1062 -370 -1065 8 -8 329 -61 333 -54 10 15 182 499 261 734
222 656 248 797 163 870 -51 42 -90 35 -154 -29z"/>
<path d="M2039 2827 l-34 -23 0 -85 c0 -78 3 -89 32 -135 112 -173 417 -254
964 -254 217 0 228 -1 269 -23 49 -26 83 -81 95 -153 6 -39 4 -43 -33 -73 -46
-36 -166 -94 -306 -147 -228 -86 -449 -294 -563 -529 -87 -180 -93 -308 -24
-535 46 -151 57 -216 46 -285 l-7 -47 -45 6 c-75 10 -158 53 -212 111 -85 89
-131 209 -153 390 l-12 105 -56 0 -55 0 0 -73 c-1 -59 -6 -82 -28 -125 -112
-216 -350 -281 -590 -161 -297 149 -497 476 -422 690 17 47 62 112 75 107 5
-2 70 -84 146 -183 75 -99 157 -202 182 -228 81 -84 157 -111 230 -82 54 22
73 55 60 104 -45 163 -389 631 -503 685 -29 14 -42 15 -76 6 -156 -42 -248
-231 -220 -449 14 -108 39 -187 100 -316 201 -422 543 -689 991 -772 144 -26
421 -24 558 5 291 63 522 190 737 406 217 219 352 464 435 793 82 324 77 717
-11 922 -37 88 -121 146 -299 209 -254 89 -743 162 -1083 162 -144 0 -156 -1
-188 -23z"/>
<path d="M1328 2651 c-49 -31 -115 -109 -124 -148 -19 -76 48 -236 186 -442
181 -270 380 -485 507 -547 48 -24 58 -26 91 -16 24 8 46 24 61 47 30 44 25
83 -29 239 -142 408 -382 797 -541 874 -61 29 -96 28 -151 -7z"/>
<path d="M2260 2075 c0 -13 89 -236 94 -236 4 0 49 40 101 90 l94 89 -72 12
c-40 6 -105 19 -144 29 -40 9 -73 17 -73 16z"/>
</g>
</svg>
