<?xml version="1.0" standalone="no"?>
<!DOCTYPE svg PUBLIC "-//W3C//DTD SVG 20010904//EN"
 "http://www.w3.org/TR/2001/REC-SVG-20010904/DTD/svg10.dtd">
<svg version="1.0" xmlns="http://www.w3.org/2000/svg"
 width="448.000000pt" height="512.000000pt" viewBox="0 0 448.000000 512.000000"
 preserveAspectRatio="xMidYMid meet">

<g transform="translate(0.000000,512.000000) scale(0.100000,-0.100000)"
fill="#000000" stroke="none">
<path d="M0 4828 c1 -254 3 -288 14 -256 34 95 81 149 176 199 l45 24 1995 0
c1942 0 1996 -1 2045 -19 90 -35 172 -129 194 -223 6 -25 9 65 10 265 l1 302
-2240 0 -2240 0 0 -292z"/>
<path d="M908 4141 c-31 -10 -72 -28 -91 -40 -52 -32 -116 -106 -145 -169 -24
-50 -27 -70 -27 -157 0 -88 3 -107 27 -157 92 -197 318 -281 512 -190 240 112
296 427 109 617 -98 99 -256 139 -385 96z"/>
<path d="M2887 3134 c-184 -41 -332 -133 -428 -264 l-44 -61 -3 146 -3 145
-319 0 -320 0 0 -1070 0 -1070 329 0 329 0 5 608 c4 525 7 617 22 682 32 141
101 242 193 281 94 41 213 47 314 17 68 -20 149 -107 176 -188 36 -109 42
-221 42 -822 l0 -578 330 0 330 0 0 675 c0 425 -4 712 -11 777 -43 401 -206
627 -509 705 -124 32 -332 40 -433 17z"/>
<path d="M690 2030 l0 -1070 330 0 330 0 0 1070 0 1070 -330 0 -330 0 0 -1070z"/>
<path d="M1 298 l-1 -298 2240 0 2240 0 -1 298 c0 254 -2 291 -13 257 -35
-111 -104 -183 -210 -219 -45 -15 -216 -16 -2022 -16 -1973 0 -1973 0 -2029
21 -91 34 -172 127 -196 224 -4 17 -7 -104 -8 -267z"/>
</g>
</svg>
