<?xml version="1.0" standalone="no"?>
<!DOCTYPE svg PUBLIC "-//W3C//DTD SVG 20010904//EN"
 "http://www.w3.org/TR/2001/REC-SVG-20010904/DTD/svg10.dtd">
<svg version="1.0" xmlns="http://www.w3.org/2000/svg"
 width="512.000000pt" height="512.000000pt" viewBox="0 0 512.000000 512.000000"
 preserveAspectRatio="xMidYMid meet">

<g transform="translate(0.000000,512.000000) scale(0.100000,-0.100000)"
fill="#000000" stroke="none">
<path d="M0 2560 l0 -2560 2560 0 2560 0 0 2560 0 2560 -2560 0 -2560 0 0
-2560z m3760 2055 c177 -37 361 -132 492 -253 l58 -55 63 13 c139 27 371 113
515 192 41 22 76 37 79 35 8 -9 -44 -127 -94 -210 -56 -94 -179 -228 -270
-295 -57 -42 -62 -47 -41 -50 60 -7 365 70 486 124 30 13 57 22 60 19 19 -19
-277 -343 -421 -459 l-87 -71 -4 -176 c-19 -780 -328 -1523 -861 -2068 -166
-170 -257 -248 -423 -364 -763 -533 -1804 -664 -2710 -341 -127 45 -442 195
-539 256 l-52 33 217 0 c238 0 343 12 522 56 275 68 518 178 740 337 l65 47
-75 7 c-363 37 -682 254 -839 572 -78 157 -91 141 117 142 119 1 195 6 232 16
l55 14 -70 18 c-160 40 -373 169 -486 294 -162 180 -259 403 -276 635 -3 48
-4 87 -1 87 3 0 35 -13 71 -30 94 -43 229 -80 317 -87 l75 -6 -76 61 c-370
298 -487 824 -281 1266 l36 79 46 -54 c280 -335 700 -645 1095 -810 291 -121
606 -201 907 -229 61 -6 112 -9 114 -7 2 1 -2 34 -8 72 -17 114 -5 333 26 442
53 191 144 341 290 480 166 158 336 240 586 283 69 11 263 3 350 -15z"/>
</g>
</svg>
